<?xml version="1.0" encoding="utf-8"?>
<?xml-stylesheet type="text/xsl" href="rss1.xsl"?>
<rss version="2.0" xmlns:atom="http://www.w3.org/2005/Atom" xmlns:content="http://purl.org/rss/1.0/modules/content/" xmlns:dc="http://purl.org/dc/elements/1.1/" xmlns:media="http://search.yahoo.com/mrss/">
<channel>
 <title>Getty</title>
 <link>http://www.gettyimg.com/</link>
 <atom:link href="http://www.gettyimg.com/" rel="self" type="application/rss+xml" />

 
                <item>
                <title><![CDATA[【Apple Music】WEB-RiP - Claudia Leitte - Carnaval (feat. Pitbull) (1080p)]]></title>
                <link><![CDATA[https://sharemania.us/threads/claudia-leitte-carnaval-feat-pitbull-1080p.249235/]]></link>
                <description><![CDATA[<article>
<blockquote class="messageText SelectQuoteContainer ugc baseHtml">
<img src="https://i.postimg.cc/7Z5LfvH8/Claudia-Leitte-Carnaval-feat-Pitbull-mp4.jpg" class="bbCodeImage LbImage" alt="[​IMG]" data-url="https://i.postimg.cc/7Z5LfvH8/Claudia-Leitte-Carnaval-feat-Pitbull-mp4.jpg" style=""><br>
<br>
<div class="bbCodeBlock bbCodeCode">
<div class="type">Code:</div>
<pre>General
Complete name                  : G:\Новая папка\Claudia Leitte - Carnaval (feat. Pitbull).mp4
Format                         : MPEG-4
Format profile                 : Base Media
Codec ID                       : isom (isom/iso2/avc1/mp41)
File size                      : 274 MiB
Duration                       : 3 min 45 s
Overall bit rate               : 10.2 Mb/s
Frame rate                     : 23.976 FPS
Movie name                     : Carnaval (feat. Pitbull)
Performer                      : Claudia Leitte
Genre                          : Pop
ContentType                    : Music Video
Recorded date                  : 2018-02-07 08:00:00 UTC
Writing application            : Lavf56.30.100
Copyright                      : ℗ 2018 Produtora Ciel, Under exclusive license to Roc Nation Records, LLC.

Video
ID                             : 1
Format                         : AVC
Format/Info                    : Advanced Video Codec
Format profile                 : High@L4
Format settings                : CABAC / 4 Ref Frames
Format settings, CABAC         : Yes
Format settings, Reference fra : 4 frames
Format settings, Slice count   : 8 slices per frame
Codec ID                       : avc1
Codec ID/Info                  : Advanced Video Coding
Duration                       : 3 min 45 s
Bit rate                       : 9 951 kb/s
Width                          : 1 912 pixels
Height                         : 1 072 pixels
Display aspect ratio           : 16:9
Frame rate mode                : Variable
Frame rate                     : 23.976 FPS
Minimum frame rate             : 23.976 FPS
Maximum frame rate             : 24.072 FPS
Color space                    : YUV
Chroma subsampling             : 4:2:0
Bit depth                      : 8 bits
Scan type                      : Progressive
Bits/(Pixel*Frame)             : 0.203
Stream size                    : 267 MiB (97%)
Color range                    : Limited
Color primaries                : BT.709
Transfer characteristics       : BT.709
Matrix coefficients            : BT.709
Codec configuration box        : avcC

Audio
ID                             : 2
Format                         : AAC LC
Format/Info                    : Advanced Audio Codec Low Complexity
Codec ID                       : mp4a-40-2
Duration                       : 3 min 45 s
Duration_LastFrame             : -15 ms
Bit rate mode                  : Constant
Bit rate                       : 253 kb/s
Channel(s)                     : 2 channels
Channel layout                 : L R
Sampling rate                  : 48.0 kHz
Frame rate                     : 46.875 FPS (1024 SPF)
Compression mode               : Lossy
Stream size                    : 6.80 MiB (2%)
Default                        : Yes
Alternate group                : 1

</pre>
</div>
<div class="bbCodeBlock bbCodeVfcHH HiddenContent">
<div class="attribution type">Hidden Content:</div>
<blockquote>You must either reply or click 'Like' to see the hidden information contained here.</blockquote>
</div>
<div class="messageTextEndMarker">&nbsp;</div>
</blockquote>
</article>]]></description>
                <author><![CDATA[vitalya3]]></author>
                </item>

                
                <item>
                <title><![CDATA[【Apple Music】WEB-RiP - 50 Cent - Disco Inferno (Edited Uncut Version) (1080p)]]></title>
                <link><![CDATA[https://sharemania.us/threads/50-cent-disco-inferno-edited-uncut-version-1080p.249237/]]></link>
                <description><![CDATA[<article>
<blockquote class="messageText SelectQuoteContainer ugc baseHtml">
<img src="https://i.postimg.cc/52Lgz2S8/50-Cent-Disco-Inferno-Edited-Uncut-Version-mp4.jpg" class="bbCodeImage LbImage" alt="[​IMG]" data-url="https://i.postimg.cc/52Lgz2S8/50-Cent-Disco-Inferno-Edited-Uncut-Version-mp4.jpg" style=""><br>
<br>
<div class="bbCodeBlock bbCodeCode">
<div class="type">Code:</div>
<pre>General
Complete name                  : G:\Новая папка\50 Cent - Disco Inferno (Edited Uncut Version).mp4
Format                         : MPEG-4
Format profile                 : Base Media
Codec ID                       : isom (isom/iso2/avc1/mp41)
File size                      : 258 MiB
Duration                       : 3 min 35 s
Overall bit rate               : 10.0 Mb/s
Frame rate                     : 23.976 FPS
Movie name                     : Disco Inferno (Edited Uncut Version)
Performer                      : 50 Cent
Genre                          : Hip-Hop/Rap
ContentType                    : Music Video
Recorded date                  : 2005-01-01 08:00:00 UTC
Writing application            : Lavf56.30.100
Copyright                      : An Interscope Records Release; ℗ 2005 UMG Recordings, Inc.

Video
ID                             : 1
Format                         : AVC
Format/Info                    : Advanced Video Codec
Format profile                 : High@L4
Format settings                : CABAC / 5 Ref Frames
Format settings, CABAC         : Yes
Format settings, Reference fra : 5 frames
Format settings, Slice count   : 8 slices per frame
Codec ID                       : avc1
Codec ID/Info                  : Advanced Video Coding
Duration                       : 3 min 35 s
Bit rate                       : 9 784 kb/s
Width                          : 1 444 pixels
Height                         : 1 080 pixels
Display aspect ratio           : 4:3
Frame rate mode                : Constant
Frame rate                     : 23.976 (24000/1001) FPS
Color space                    : YUV
Chroma subsampling             : 4:2:0
Bit depth                      : 8 bits
Scan type                      : Progressive
Bits/(Pixel*Frame)             : 0.262
Stream size                    : 251 MiB (97%)
Language                       : English
Color range                    : Limited
Color primaries                : BT.709
Transfer characteristics       : BT.709
Matrix coefficients            : BT.709
Codec configuration box        : avcC

Audio
ID                             : 2
Format                         : AAC LC
Format/Info                    : Advanced Audio Codec Low Complexity
Codec ID                       : mp4a-40-2
Duration                       : 3 min 35 s
Duration_LastFrame             : -4 ms
Bit rate mode                  : Constant
Bit rate                       : 265 kb/s
Channel(s)                     : 2 channels
Channel layout                 : L R
Sampling rate                  : 48.0 kHz
Frame rate                     : 46.875 FPS (1024 SPF)
Compression mode               : Lossy
Stream size                    : 6.75 MiB (3%)
Default                        : Yes
Alternate group                : 1

</pre>
</div>
<div class="bbCodeBlock bbCodeVfcHH HiddenContent">
<div class="attribution type">Hidden Content:</div>
<blockquote>You must either reply or click 'Like' to see the hidden information contained here.</blockquote>
</div>
<div class="messageTextEndMarker">&nbsp;</div>
</blockquote>
</article>]]></description>
                <author><![CDATA[vitalya3]]></author>
                </item>

                
                <item>
                <title><![CDATA[【Apple Music】WEB-RiP - Cleo - Mi-Sie (1080p)]]></title>
                <link><![CDATA[https://sharemania.us/threads/cleo-mi-sie-1080p.249233/]]></link>
                <description><![CDATA[<article>
<blockquote class="messageText SelectQuoteContainer ugc baseHtml">
<img src="https://i.postimg.cc/yY99WSvy/Cleo-Mi-Sie-mp4.jpg" class="bbCodeImage LbImage" alt="[​IMG]" data-url="https://i.postimg.cc/yY99WSvy/Cleo-Mi-Sie-mp4.jpg" style=""><br>
<br>
<div class="bbCodeBlock bbCodeCode">
<div class="type">Code:</div>
<pre>General
Complete name                  : G:\Новая папка\Cleo - Mi-Sie.mp4
Format                         : MPEG-4
Format profile                 : Base Media
Codec ID                       : isom (isom/iso2/avc1/mp41)
File size                      : 264 MiB
Duration                       : 3 min 37 s
Overall bit rate               : 10.2 Mb/s
Frame rate                     : 25.000 FPS
Movie name                     : Mi-Sie
Performer                      : Cleo
Genre                          : Pop
ContentType                    : Music Video
Recorded date                  : 2016-10-21 07:00:00 UTC
Writing application            : Lavf56.30.100
Copyright                      : ℗ 2016 Universal Music Polska

Video
ID                             : 1
Format                         : AVC
Format/Info                    : Advanced Video Codec
Format profile                 : High@L4
Format settings                : CABAC / 4 Ref Frames
Format settings, CABAC         : Yes
Format settings, Reference fra : 4 frames
Format settings, Slice count   : 8 slices per frame
Codec ID                       : avc1
Codec ID/Info                  : Advanced Video Coding
Duration                       : 3 min 37 s
Bit rate                       : 9 929 kb/s
Width                          : 1 912 pixels
Height                         : 1 072 pixels
Display aspect ratio           : 16:9
Frame rate mode                : Constant
Frame rate                     : 25.000 FPS
Color space                    : YUV
Chroma subsampling             : 4:2:0
Bit depth                      : 8 bits
Scan type                      : Progressive
Bits/(Pixel*Frame)             : 0.194
Stream size                    : 258 MiB (98%)
Color range                    : Limited
Color primaries                : BT.709
Transfer characteristics       : BT.709
Matrix coefficients            : BT.709
Codec configuration box        : avcC

Audio
ID                             : 2
Format                         : AAC LC
Format/Info                    : Advanced Audio Codec Low Complexity
Codec ID                       : mp4a-40-2
Duration                       : 3 min 37 s
Duration_LastFrame             : -4 ms
Bit rate mode                  : Constant
Bit rate                       : 247 kb/s
Channel(s)                     : 2 channels
Channel layout                 : L R
Sampling rate                  : 48.0 kHz
Frame rate                     : 46.875 FPS (1024 SPF)
Compression mode               : Lossy
Stream size                    : 6.42 MiB (2%)
Default                        : Yes
Alternate group                : 1

</pre>
</div>
<div class="bbCodeBlock bbCodeVfcHH HiddenContent">
<div class="attribution type">Hidden Content:</div>
<blockquote>You must either reply or click 'Like' to see the hidden information contained here.</blockquote>
</div>
<div class="messageTextEndMarker">&nbsp;</div>
</blockquote>
</article>]]></description>
                <author><![CDATA[vitalya3]]></author>
                </item>

                
                <item>
                <title><![CDATA[【Apple Music】WEB-RiP - Oana Radu &amp; Dr Mako - Ea a fost prima (feat. Pacha Man) (1080p)]]></title>
                <link><![CDATA[https://sharemania.us/threads/oana-radu-dr-mako-ea-a-fost-prima-feat-pacha-man-1080p.249230/]]></link>
                <description><![CDATA[<article>
<blockquote class="messageText SelectQuoteContainer ugc baseHtml">
<img src="https://i.postimg.cc/YqbT0GVs/Oana-Radu-Dr-Mako-Ea-a-fost-prima-feat-Pacha-Man-mp4.jpg" class="bbCodeImage LbImage" alt="[​IMG]" data-url="https://i.postimg.cc/YqbT0GVs/Oana-Radu-Dr-Mako-Ea-a-fost-prima-feat-Pacha-Man-mp4.jpg" style=""><br>
<br>
<div class="bbCodeBlock bbCodeCode">
<div class="type">Code:</div>
<pre>General
Complete name                  : G:\Новая папка\Oana Radu &amp; Dr Mako - Ea a fost prima (feat. Pacha Man).mp4
Format                         : MPEG-4
Format profile                 : Base Media
Codec ID                       : isom (isom/iso2/avc1/mp41)
File size                      : 162 MiB
Duration                       : 3 min 19 s
Overall bit rate               : 6 798 kb/s
Frame rate                     : 25.000 FPS
Movie name                     : Ea a fost prima (feat. Pacha Man)
Performer                      : Oana Radu &amp; Dr Mako
Genre                          : Pop
ContentType                    : Music Video
Recorded date                  : 2022-01-14 08:00:00 UTC
Writing application            : Lavf56.30.100
Copyright                      : ℗ 2015 Cat Music / Voices Media

Video
ID                             : 1
Format                         : AVC
Format/Info                    : Advanced Video Codec
Format profile                 : High@L4
Format settings                : CABAC / 4 Ref Frames
Format settings, CABAC         : Yes
Format settings, Reference fra : 4 frames
Format settings, Slice count   : 8 slices per frame
Codec ID                       : avc1
Codec ID/Info                  : Advanced Video Coding
Duration                       : 3 min 19 s
Bit rate                       : 6 532 kb/s
Width                          : 1 920 pixels
Height                         : 912 pixels
Display aspect ratio           : 2.105
Frame rate mode                : Constant
Frame rate                     : 25.000 FPS
Color space                    : YUV
Chroma subsampling             : 4:2:0
Bit depth                      : 8 bits
Scan type                      : Progressive
Bits/(Pixel*Frame)             : 0.149
Stream size                    : 156 MiB (96%)
Color range                    : Limited
Color primaries                : BT.709
Transfer characteristics       : BT.709
Matrix coefficients            : BT.709
Codec configuration box        : avcC

Audio
ID                             : 2
Format                         : AAC LC
Format/Info                    : Advanced Audio Codec Low Complexity
Codec ID                       : mp4a-40-2
Duration                       : 3 min 19 s
Duration_LastFrame             : -9 ms
Bit rate mode                  : Constant
Bit rate                       : 265 kb/s
Channel(s)                     : 2 channels
Channel layout                 : L R
Sampling rate                  : 48.0 kHz
Frame rate                     : 46.875 FPS (1024 SPF)
Compression mode               : Lossy
Stream size                    : 6.24 MiB (4%)
Default                        : Yes
Alternate group                : 1

</pre>
</div>
<div class="bbCodeBlock bbCodeVfcHH HiddenContent">
<div class="attribution type">Hidden Content:</div>
<blockquote>You must either reply or click 'Like' to see the hidden information contained here.</blockquote>
</div>
<div class="messageTextEndMarker">&nbsp;</div>
</blockquote>
</article>]]></description>
                <author><![CDATA[vitalya3]]></author>
                </item>

                
                <item>
                <title><![CDATA[【Apple Music】WEB-RiP - Emma Muscat - La stessa lingua (feat. Blas Cantó) (1080p)]]></title>
                <link><![CDATA[https://sharemania.us/threads/emma-muscat-la-stessa-lingua-feat-blas-cant%C3%B3-1080p.249236/]]></link>
                <description><![CDATA[<article>
<blockquote class="messageText SelectQuoteContainer ugc baseHtml">
<img src="https://i.postimg.cc/LscdvwFP/Emma-Muscat-La-stessa-lingua-feat-Blas-Cant-mp4.jpg" class="bbCodeImage LbImage" alt="[​IMG]" data-url="https://i.postimg.cc/LscdvwFP/Emma-Muscat-La-stessa-lingua-feat-Blas-Cant-mp4.jpg" style=""><br>
<br>
<div class="bbCodeBlock bbCodeCode">
<div class="type">Code:</div>
<pre>General
Complete name                  : G:\Новая папка\Emma Muscat - La stessa lingua (feat. Blas Cantó).mp4
Format                         : MPEG-4
Format profile                 : Base Media
Codec ID                       : isom (isom/iso2/avc1/mp41)
File size                      : 147 MiB
Duration                       : 3 min 3 s
Overall bit rate               : 6 723 kb/s
Frame rate                     : 25.000 FPS
Movie name                     : La stessa lingua (feat. Blas Cantó)
Performer                      : Emma Muscat
Genre                          : Pop
ContentType                    : Music Video
Recorded date                  : 2022-07-27 07:00:00 UTC
Writing application            : Lavf56.30.100
Copyright                      : ℗ Warner Records Inc./Warner Music Italy a Warner Music Group Company, © 2022 Warner Music Italy

Video
ID                             : 1
Format                         : AVC
Format/Info                    : Advanced Video Codec
Format profile                 : High@L4
Format settings                : CABAC / 5 Ref Frames
Format settings, CABAC         : Yes
Format settings, Reference fra : 5 frames
Format settings, Slice count   : 8 slices per frame
Codec ID                       : avc1
Codec ID/Info                  : Advanced Video Coding
Duration                       : 3 min 3 s
Bit rate                       : 6 458 kb/s
Width                          : 1 920 pixels
Height                         : 816 pixels
Display aspect ratio           : 2.35:1
Frame rate mode                : Constant
Frame rate                     : 25.000 FPS
Color space                    : YUV
Chroma subsampling             : 4:2:0
Bit depth                      : 8 bits
Scan type                      : Progressive
Bits/(Pixel*Frame)             : 0.165
Stream size                    : 141 MiB (96%)
Color range                    : Limited
Color primaries                : BT.709
Transfer characteristics       : BT.709
Matrix coefficients            : BT.709
Codec configuration box        : avcC

Audio
ID                             : 2
Format                         : AAC LC
Format/Info                    : Advanced Audio Codec Low Complexity
Codec ID                       : mp4a-40-2
Duration                       : 3 min 3 s
Duration_LastFrame             : -17 ms
Bit rate mode                  : Constant
Bit rate                       : 265 kb/s
Channel(s)                     : 2 channels
Channel layout                 : L R
Sampling rate                  : 48.0 kHz
Frame rate                     : 46.875 FPS (1024 SPF)
Compression mode               : Lossy
Stream size                    : 5.70 MiB (4%)
Default                        : Yes
Alternate group                : 1

</pre>
</div>
<div class="bbCodeBlock bbCodeVfcHH HiddenContent">
<div class="attribution type">Hidden Content:</div>
<blockquote>You must either reply or click 'Like' to see the hidden information contained here.</blockquote>
</div>
<div class="messageTextEndMarker">&nbsp;</div>
</blockquote>
</article>]]></description>
                <author><![CDATA[vitalya3]]></author>
                </item>

                
                <item>
                <title><![CDATA[【Requests】[REQ AUD] - Couple of Songs from Qobuz]]></title>
                <link><![CDATA[https://sharemania.us/threads/couple-of-songs-from-qobuz.249234/]]></link>
                <description><![CDATA[<article>
<blockquote class="messageText SelectQuoteContainer ugc baseHtml">
I'd be very grateful if anyone could upload <br>
<br>
these two 24bit / 44.1khz <br>
<br>
<a href="https://www.qobuz.com/gb-en/album/tonight-diya-jason-derulo-jax-jones-joel-corry/q4o24f9wxqzcb" target="_blank" class="externalLink" rel="nofollow">https://www.qobuz.com/gb-en/album/tonight-diya-jason-derulo-jax-jones-joel-corry/q4o24f9wxqzcb</a><br>
<a href="https://www.qobuz.com/gb-en/album/you-hooked-me-up-e-rotic/mqn50x6wo2iga" target="_blank" class="externalLink" rel="nofollow">https://www.qobuz.com/gb-en/album/you-hooked-me-up-e-rotic/mqn50x6wo2iga</a><br>
<br>
these two 16bit / 44.1khz <br>
<br>
<a href="https://www.qobuz.com/gb-en/album/coffee-supersister/hr5loqxpl6p3a" target="_blank" class="externalLink" rel="nofollow">https://www.qobuz.com/gb-en/album/coffee-supersister/hr5loqxpl6p3a</a><br>
<a href="https://www.qobuz.com/gb-en/album/coffee-supersister/o8k1zixjek0jc" target="_blank" class="externalLink" rel="nofollow">https://www.qobuz.com/gb-en/album/coffee-supersister/o8k1zixjek0jc</a><br>
<br>
thanks <img src="styles/default/xenforo/smilies/big_smile-48.png" class="mceSmilie" alt=":)" title="Smile    :)">
<div class="messageTextEndMarker">&nbsp;</div>
</blockquote>
</article>]]></description>
                <author><![CDATA[Jaspar]]></author>
                </item>

                </channel></rss>